HIERARCHY
ROOT Hips
{
  OFFSET 0 0 0
  CHANNELS 6 Xposition Yposition Zposition Zrotation Xrotation Yrotation
  JOINT Spine
  {
    OFFSET 0 10.1816 0.131521
    CHANNELS 3 Zrotation Xrotation Yrotation
    JOINT Spine1
    {
      OFFSET 0 10.0835 -1.0008
      CHANNELS 3 Zrotation Xrotation Yrotation
      JOINT Spine2
      {
        OFFSET 0 9.10001 -1.37342
        CHANNELS 3 Zrotation Xrotation Yrotation
        JOINT Neck
        {
          OFFSET 0 16.6717 -2.51617
          CHANNELS 3 Zrotation Xrotation Yrotation
          JOINT Head
          {
            OFFSET 0 9.61788 1.68501
            CHANNELS 3 Zrotation Xrotation Yrotation
            End Site
            {
              OFFSET 0 0 0
            }
          }
        }
        JOINT LeftShoulder
        {
          OFFSET 4.57045 10.946 -2.62799
          CHANNELS 3 Zrotation Xrotation Yrotation
          JOINT LeftArm
          {
            OFFSET 10.5924 -0.524583 -2.23212
            CHANNELS 3 Zrotation Xrotation Yrotation
            JOINT LeftForeArm
            {
              OFFSET 27.8415 -8.94286e-05 3.74589e-05
              CHANNELS 3 Zrotation Xrotation Yrotation
              JOINT LeftHand
              {
                OFFSET 28.3288 -1.74407e-05 3.78045e-05
                CHANNELS 3 Zrotation Xrotation Yrotation
                End Site
                {
                  OFFSET 0 0 0
                }
              }
            }
          }
        }
        JOINT RightShoulder
        {
          OFFSET -4.56997 10.9462 -2.62802
          CHANNELS 3 Zrotation Xrotation Yrotation
          JOINT RightArm
          {
            OFFSET -10.5928 -0.524798 -2.2321
            CHANNELS 3 Zrotation Xrotation Yrotation
            JOINT RightForeArm
            {
              OFFSET -27.8415 -3.30792e-05 1.16763e-05
              CHANNELS 3 Zrotation Xrotation Yrotation
              JOINT RightHand
              {
                OFFSET -28.3288 0 5.5816e-05
                CHANNELS 3 Zrotation Xrotation Yrotation
                End Site
                {
                  OFFSET 0 0 0
                }
              }
            }
          }
        }
      }
    }
  }
  JOINT LeftUpLeg
  {
    OFFSET 8.20778 -6.75171 -1.59956
    CHANNELS 3 Zrotation Xrotation Yrotation
    JOINT LeftLeg
    {
      OFFSET 0 -44.3705 0.284643
      CHANNELS 3 Zrotation Xrotation Yrotation
      JOINT LeftFoot
      {
        OFFSET 0 -44.4279 -2.98219
        CHANNELS 3 Zrotation Xrotation Yrotation
        JOINT LeftToeBase
        {
          OFFSET 0 -8.72867 10.7106
          CHANNELS 3 Zrotation Xrotation Yrotation
          End Site
          {
            OFFSET 0 0 0
          }
        }
      }
    }
  }
  JOINT RightUpLeg
  {
    OFFSET -8.2078 -6.75166 -1.59956
    CHANNELS 3 Zrotation Xrotation Yrotation
    JOINT RightLeg
    {
      OFFSET 0 -44.3705 0.286156
      CHANNELS 3 Zrotation Xrotation Yrotation
      JOINT RightFoot
      {
        OFFSET 0 -44.4277 -2.98379
        CHANNELS 3 Zrotation Xrotation Yrotation
        JOINT RightToeBase
        {
          OFFSET 0 -8.72867 10.7106
          CHANNELS 3 Zrotation Xrotation Yrotation
          End Site
          {
            OFFSET 0 0 0
          }
        }
      }
    }
  }
}
MOTION
Frames:	6
Frame Time:	0.0333333
-1.18455 92.6058 1.21196 0.0 0.0 0.0 0.0 -9.999999974752427e-07 0.0 0.0 0.0 0.0 0.0 0.0 0.0 0.0 0.0 0.0 0.0 -9.999999974752427e-07 0.0 -3.999999989900971e-06 -1.9999999949504854e-06 9.999999974752427e-07 1.499999999055035e-05 -2.999999992425728e-06 1.9999999949504854e-06 -9.000000005698894e-06 -1.0000000003174137e-05 3.999999989900971e-06 9.999999974752427e-07 -9.999999974752427e-07 -9.999999974752427e-07 1.1999999998124622e-05 3.999999989900971e-06 0.0 -7.000000010748408e-06 -9.999999974752427e-07 1.9999999949504854e-06 -1.5999999988025593e-05 -6.000000013273166e-06 -4.9999999873762135e-06 4.9999999873762135e-06 0.0 9.999999974752427e-07 1.3999999993075107e-05 9.000000005698894e-06 -0.0002020000000015898 -1.499999999055035e-05 -2.599999999119973e-05 0.0002020000000015898 0.0 0.0 0.0 0.0 1.9999999949504854e-06 0.0 4.9999999873762135e-06 8.000000008223651e-06 -1.2999999995599865e-05 -9.999999974752427e-07 -1.1999999998124622e-05 1.2999999995599865e-05 0.0 -2.999999992425728e-06 0.0 0.0 0.0 0.0 
-0.929989 92.2539 1.94518 -3.5842289999999934 1.2980640000000108 -150.379592 9.999999974752427e-07 0.0 -9.999999974752427e-07 0.0 0.0 0.0 -9.999999974752427e-07 0.0 0.0 0.0 9.999999974752427e-07 -1.9999999949504854e-06 -14.104995000000002 6.522095000000007 -0.015591999999998052 28.068329000000006 7.028040000000004 15.533333999999996 -61.664894000000004 -23.490552000000008 -11.35008400000001 -41.64726999999999 -37.65105599999998 14.724209000000002 -2.999999992425728e-06 -2.999999992425728e-06 1.9999999949504854e-06 -31.600471 4.728779000000003 22.09358900000001 66.976869 -39.53610599999999 19.853632000000005 21.093402999999995 -15.73040499999999 -12.844096000000008 0.0 -9.999999974752427e-07 2.999999992425728e-06 12.512709999999998 -20.106228999999985 0.8666139999999984 7.6107000000000085 21.73427799999999 -0.7518849999999873 6.000000013273166e-06 -2.999999992425728e-06 7.000000010748408e-06 9.999999974752427e-07 -9.999999974752427e-07 -9.999999974752427e-07 -3.865372000000008 -0.38133999999999446 -0.2721520000000055 3.714244000000008 31.45645300000001 -0.36781500000000733 -9.999999974752427e-07 0.0 -1.9999999949504854e-06 2.999999992425728e-06 0.0 -1.9999999949504854e-06 
-0.635223 91.9035 2.77291 -2.8638280000000123 1.861785999999995 -146.679788 9.999999974752427e-07 0.0 3.999999989900971e-06 0.0 0.0 6.000000013273166e-06 0.0 0.0 2.999999992425728e-06 0.0 9.999999974752427e-07 0.0 -11.802210000000002 5.3813710000000015 -0.011029000000007727 27.943882000000002 7.250977000000006 16.781394000000006 -62.171565 -20.495228999999995 -11.168935000000005 -41.450434 -37.757047 14.830559999999991 -4.9999999873762135e-06 -3.999999989900971e-06 -3.999999989900971e-06 -31.970421999999985 4.8681899999999985 22.40880899999999 67.752936 -35.61105900000001 19.019650000000013 23.056970000000007 -17.441281000000004 -13.328476999999992 -9.999999974752427e-07 0.0 -9.999999974752427e-07 12.355917000000005 -21.367137000000014 0.8510829999999885 6.442675000000008 17.73637199999999 -0.6370000000000005 0.0 -1.9999999949504854e-06 -9.999999974752427e-07 -1.9999999949504854e-06 -1.9999999949504854e-06 -9.999999974752427e-07 -2.666235999999998 2.816467999999986 -0.19492999999999938 3.7169389999999964 29.14068800000001 -0.3680840000000103 9.999999974752427e-07 0.0 0.0 9.999999974752427e-07 -9.999999974752427e-07 0.0 
-0.260761 91.4258 3.7916 -3.5730100000000107 1.555355999999989 -148.154644 0.0 0.0 4.9999999873762135e-06 0.0 0.0 3.999999989900971e-06 0.0 0.0 3.999999989900971e-06 0.0 0.0 9.999999974752427e-07 -12.250583000000006 4.757357000000013 -0.010528999999991129 27.525712 6.657616999999988 14.696404999999999 -63.82853399999999 -20.778559 -11.826178999999996 -43.429519 -39.553199000000006 14.19932399999999 -1.9999999949504854e-06 0.0 -2.999999992425728e-06 -30.617394999999988 4.298619000000002 20.635751999999997 69.47005899999999 -33.502121999999986 19.034334 25.007717000000014 -19.743466000000012 -14.148019000000005 1.9999999949504854e-06 -9.999999974752427e-07 -9.999999974752427e-07 12.65637000000001 -20.891220000000004 0.8744440000000111 7.091438000000011 16.81818100000001 -0.7008460000000127 -1.9999999949504854e-06 1.9999999949504854e-06 1.9999999949504854e-06 -9.999999974752427e-07 9.999999974752427e-07 0.0 -2.646554000000009 0.11639600000000883 -0.18101200000000972 3.9343819999999994 29.73691199999999 -0.3895829999999876 -9.999999974752427e-07 -4.9999999873762135e-06 9.999999974752427e-07 9.999999974752427e-07 2.999999992425728e-06 0.0 
0.195806 90.8418 5.05827 -2.8462069999999926 0.934788999999995 -151.196961 0.0 0.0 -9.999999974752427e-07 0.0 0.0 -1.9999999949504854e-06 0.0 0.0 1.9999999949504854e-06 9.999999974752427e-07 0.0 0.0 -12.442271000000005 3.8179480000000012 -0.009141999999997097 27.610208 6.783039000000002 14.906741000000011 -64.396772 -21.01658900000001 -11.975695000000002 -43.295968000000016 -40.705017999999995 14.504705999999999 -3.999999989900971e-06 -1.9999999949504854e-06 0.0 -30.78840600000001 4.440536000000009 21.538353999999998 70.20927 -35.21106 20.05728400000001 24.870090000000005 -19.18344300000001 -13.821408999999989 -2.999999992425728e-06 1.9999999949504854e-06 -9.999999974752427e-07 12.969716000000005 -20.935710999999998 0.8978290000000015 7.4805120000000045 20.54135500000001 -0.7390939999999944 0.0 -2.999999992425728e-06 -1.9999999949504854e-06 0.0 9.999999974752427e-07 -1.9999999949504854e-06 -4.249853000000002 -2.125021000000004 -0.29355599999999527 3.916764999999998 32.494789 -0.38783699999999044 0.0 2.999999992425728e-06 0.0 9.999999974752427e-07 -4.9999999873762135e-06 -2.999999992425728e-06 
0.734569 90.1627 6.65374 -2.8172030000000063 0.9319099999999878 -151.237696 0.0 0.0 0.0 0.0 0.0 0.0 0.0 0.0 9.999999974752427e-07 0.0 0.0 0.0 -12.44708 3.693146000000013 -0.008916999999996733 27.621329000000003 6.7779549999999915 14.900418000000002 -64.421989 -21.28149300000001 -12.019013000000001 -43.29517200000001 -40.250478999999984 14.385862000000003 2.999999992425728e-06 -2.999999992425728e-06 2.999999992425728e-06 -30.853084999999993 4.45877999999999 21.740206999999998 70.210971 -35.672674 20.248711000000014 24.803157 -18.820842 -13.62443300000001 1.9999999949504854e-06 9.999999974752427e-07 9.999999974752427e-07 13.011870999999985 -20.865825 0.9012160000000051 7.584608000000003 20.590855000000005 -0.7493279999999913 0.0 -2.999999992425728e-06 -9.999999974752427e-07 -9.999999974752427e-07 0.0 -9.999999974752427e-07 -4.337544000000008 -2.238558000000012 -0.2997489999999914 3.8263359999999977 32.60884300000001 -0.3788940000000025 9.999999974752427e-07 -1.9999999949504854e-06 -9.999999974752427e-07 -9.999999974752427e-07 0.0 2.999999992425728e-06 
